<?xml version="1.0" encoding="utf-8"?>
<!-- Generator: Adobe Illustrator 17.0.1, SVG Export Plug-In . SVG Version: 6.00 Build 0)  -->
<!DOCTYPE svg PUBLIC "-//W3C//DTD SVG 1.1//EN" "http://www.w3.org/Graphics/SVG/1.1/DTD/svg11.dtd">
<svg version="1.1" id="Layer_1" xmlns="http://www.w3.org/2000/svg" xmlns:xlink="http://www.w3.org/1999/xlink" x="0px" y="0px"
	 width="34.002px" height="77px" viewBox="0 0 34.002 77" enable-background="new 0 0 34.002 77" xml:space="preserve">
<path fill="#FFFFFF" d="M16.106,77c-0.344,0-0.672-0.217-0.82-0.581L0.076,38.897C0.026,38.773,0,38.638,0,38.503
	c0-0.135,0.026-0.277,0.076-0.401L15.267,0.58c0.199-0.491,0.729-0.713,1.18-0.499c0.453,0.217,0.657,0.793,0.458,1.285
	L1.871,38.499l15.053,37.132c0.199,0.493-0.005,1.068-0.457,1.286C16.349,76.973,16.226,77,16.106,77z"/>
<path fill="#FFFFFF" d="M17.894,0c0.344,0,0.672,0.217,0.82,0.581l15.21,37.522C33.974,38.227,34,38.362,34,38.497
	c0,0.135-0.026,0.277-0.076,0.401L18.733,76.42c-0.199,0.491-0.729,0.713-1.18,0.499c-0.453-0.217-0.657-0.793-0.458-1.285
	l15.033-37.133L17.076,1.369c-0.199-0.493,0.005-1.068,0.457-1.286C17.651,0.027,17.774,0,17.894,0z"/>
</svg>
