<?xml version="1.0" encoding="utf-8"?>
<!-- Generator: Adobe Illustrator 17.0.1, SVG Export Plug-In . SVG Version: 6.00 Build 0)  -->
<!DOCTYPE svg PUBLIC "-//W3C//DTD SVG 1.1//EN" "http://www.w3.org/Graphics/SVG/1.1/DTD/svg11.dtd">
<svg version="1.1" id="Layer_1" xmlns="http://www.w3.org/2000/svg" xmlns:xlink="http://www.w3.org/1999/xlink" x="0px" y="0px"
	 width="46px" height="46px" viewBox="0 0 46 46" enable-background="new 0 0 46 46" xml:space="preserve">
<path fill="#FFFFFF" d="M31.513,17H14.487c-0.448,0-0.811-0.552-0.811-1c0-0.448,0.363-1,0.811-1h17.027
	c0.448,0,0.811,0.552,0.811,1C32.324,16.448,31.961,17,31.513,17z"/>
<path fill="#FFFFFF" d="M31.513,24H14.487c-0.448,0-0.811-0.552-0.811-1s0.363-1,0.811-1h17.027c0.448,0,0.811,0.552,0.811,1
	S31.961,24,31.513,24z"/>
<path fill="#FFFFFF" d="M31.513,31H14.487c-0.448,0-0.811-0.552-0.811-1s0.363-1,0.811-1h17.027c0.448,0,0.811,0.552,0.811,1
	S31.961,31,31.513,31z"/>
<path fill="#FFFFFF" d="M23,46C10.318,46,0,35.682,0,23S10.318,0,23,0s23,10.318,23,23S35.682,46,23,46z M23,1.622
	C11.212,1.622,1.622,11.212,1.622,23S11.212,44.378,23,44.378S44.378,34.788,44.378,23S34.788,1.622,23,1.622z"/>
</svg>
